# xmcd
#
# Track frame offsets:
#	150
#	13735
#	30740
#	42465
#	54228
#	67743
#	80508
#	96841
#	111806
#	125076
#	147056
#	159894
#	177369
#	193092
#	207700
#	221613
#	234028
#	250323
#	264558
#	282811
#
# Disc length: 3950 seconds
#
# Revision: 1
# Processed by: cddbd v1.5.2PL0 Copyright (c) Steve Scherf et al.
# Submitted via: audiograbber 1.83.01
#
DISCID=1b0f6c14
DTITLE=Various Artist - Halland's Country Hits Volume 2
DYEAR=1900
DGENRE=
TTITLE0=Conway Twitty - Between Blue Eyes And Jeans
TTITLE1=Conway Twitty - Crazy In Love
TTITLE2=Conway Twitty - Don't Call Him A Cowboy
TTITLE3=Conway Twitty - I Am The Dreamer (You Are The Dream)
TTITLE4=Conway Twitty - I Don't Know A Thing About Love
TTITLE5=Conway Twitty - I May Never Get To Heaven
TTITLE6=Conway Twitty - I Want To Know You Before.....Love
TTITLE7=Conway Twitty - I'd Just Love To Lay You Down
TTITLE8=Conway Twitty - Slow Hand
TTITLE9=Conway Twitty - That's My Job
TTITLE10=Conway Twitty - Tight Fittin' Jeans
TTITLE11=Steve Wariner - I Got Dreams
TTITLE12=Steve Wariner - I Should Be With You
TTITLE13=Steve Wariner - Life's Highway
TTITLE14=Steve Wariner - Lynda
TTITLE15=Steve Wariner - Precious Thing
TTITLE16=Steve Wariner - Small Town Girl
TTITLE17=Steve Wariner - What I Didn't Do
TTITLE18=Steve Wariner - You Can Dream Of Me
TTITLE19=Steve Wariner - Your Memory
EXTD=
EXTT0=
EXTT1=
EXTT2=
EXTT3=
EXTT4=
EXTT5=
EXTT6=
EXTT7=
EXTT8=
EXTT9=
EXTT10=
EXTT11=
EXTT12=
EXTT13=
EXTT14=
EXTT15=
EXTT16=
EXTT17=
EXTT18=
EXTT19=
PLAYORDER=
